<svg width="200" height="133" viewBox="0 0 200 133" fill="none" xmlns="http://www.w3.org/2000/svg">
<path fill-rule="evenodd" clip-rule="evenodd" d="M118.521 79.5429C109.581 86.1161 96.6223 89.6231 85.4654 89.6231C69.8216 89.6231 55.7382 83.8514 45.0834 74.2523C44.2465 73.4972 44.9965 72.4686 46.0009 73.0565C57.4994 79.7299 71.7168 83.7446 86.403 83.7446C96.3076 83.7446 107.203 81.7005 117.222 77.4587C118.735 76.8174 120.001 78.4473 118.521 79.5429Z" fill="#FF9900"/>
<path fill-rule="evenodd" clip-rule="evenodd" d="M122.237 75.301C121.099 73.8447 114.683 74.6129 111.803 74.9536C110.926 75.0605 110.792 74.2989 111.582 73.7512C116.692 70.164 125.077 71.1994 126.054 72.4018C127.032 73.6109 125.8 81.9944 120.998 85.9958C120.261 86.6104 119.558 86.283 119.886 85.468C120.965 82.7827 123.382 76.764 122.237 75.301Z" fill="#FF9900"/>
<path fill-rule="evenodd" clip-rule="evenodd" d="M112.003 48.427V44.94C112.003 44.4123 112.405 44.0582 112.887 44.0582H128.538C129.04 44.0582 129.442 44.4189 129.442 44.94V47.9259C129.435 48.427 129.013 49.0817 128.263 50.1171L120.153 61.6669C123.167 61.5935 126.348 62.041 129.08 63.5775C129.696 63.9248 129.864 64.4326 129.911 64.9335V68.6543C129.911 69.1619 129.348 69.7565 128.759 69.4492C123.944 66.9309 117.548 66.657 112.224 69.4759C111.682 69.77 111.113 69.182 111.113 68.6744V65.1406C111.113 64.5728 111.119 63.6042 111.688 62.7425L121.084 49.3022H112.907C112.405 49.3022 112.003 48.9481 112.003 48.427ZM54.9129 70.184H50.1514C49.696 70.1507 49.3345 69.81 49.3009 69.3757V45.0002C49.3009 44.5125 49.7094 44.125 50.2183 44.125H54.6583C55.1205 44.145 55.4888 44.4991 55.5223 44.9399V48.1265H55.6094C56.7679 45.047 58.9443 43.6109 61.8776 43.6109C64.8576 43.6109 66.7194 45.047 68.0588 48.1265C69.2106 45.047 71.8291 43.6109 74.6351 43.6109C76.6306 43.6109 78.8139 44.4325 80.1465 46.2762C81.6532 48.3269 81.3452 51.3062 81.3452 53.9181L81.3385 69.3024C81.3385 69.7901 80.93 70.1842 80.4211 70.1842H75.6663C75.1909 70.1509 74.8091 69.7701 74.8091 69.3024V56.383C74.8091 55.3542 74.9029 52.789 74.6752 51.8139C74.3203 50.1772 73.2556 49.7162 71.8759 49.7162C70.724 49.7162 69.5186 50.4844 69.0297 51.7137C68.5409 52.9429 68.5879 55.0002 68.5879 56.383V69.3022C68.5879 69.7899 68.1792 70.184 67.6703 70.184H62.9156C62.4334 70.1507 62.0583 69.77 62.0583 69.3022L62.0517 56.383C62.0517 53.6642 62.5003 49.663 59.1185 49.663C55.6965 49.663 55.8303 53.564 55.8303 56.383V69.3022C55.8303 69.7899 55.4219 70.184 54.9129 70.184ZM142.916 43.6108C149.981 43.6108 153.805 49.6628 153.805 57.3583C153.805 64.7932 149.579 70.6918 142.916 70.6918C135.978 70.6918 132.201 64.6396 132.201 57.0977C132.201 49.5092 136.025 43.6108 142.916 43.6108ZM142.956 48.5874C139.447 48.5874 139.226 53.3569 139.226 56.3295C139.226 59.3089 139.179 65.6682 142.916 65.6682C146.606 65.6682 146.78 60.538 146.78 57.4117C146.78 55.3542 146.693 52.8959 146.07 50.9454C145.534 49.2486 144.469 48.5874 142.956 48.5874ZM162.966 70.184H158.225C157.749 70.1507 157.368 69.77 157.368 69.3022L157.361 44.9199C157.401 44.4724 157.796 44.125 158.278 44.125H162.692C163.107 44.145 163.448 44.4258 163.542 44.8064V48.534H163.629C164.962 45.2006 166.83 43.6108 170.118 43.6108C172.255 43.6108 174.337 44.3788 175.677 46.4831C176.922 48.4336 176.922 51.7137 176.922 54.0718V69.4158C176.869 69.8433 176.474 70.184 176.005 70.184H171.23C170.795 70.1507 170.433 69.83 170.386 69.4158V56.1759C170.386 53.5106 170.694 49.6093 167.406 49.6093C166.248 49.6093 165.183 50.3842 164.654 51.5599C163.984 53.0497 163.897 54.5326 163.897 56.176V69.3022C163.89 69.7899 163.475 70.184 162.966 70.184ZM99.5271 58.5407C99.5271 60.391 99.574 61.9342 98.6363 63.5773C97.8797 64.9135 96.6743 65.735 95.3416 65.735C93.5134 65.735 92.4419 64.3457 92.4419 62.2948C92.4419 58.2467 96.0783 57.5119 99.5271 57.5119V58.5407ZM104.329 70.1172C104.014 70.3978 103.559 70.4179 103.204 70.2308C101.623 68.9215 101.335 68.3136 100.471 67.0644C97.8596 69.7232 96.0046 70.5181 92.6226 70.5181C88.6112 70.5181 85.4972 68.053 85.4972 63.1166C85.4972 59.2621 87.5866 56.6369 90.5734 55.3542C93.1585 54.2186 96.768 54.0182 99.5272 53.7042V53.0898C99.5272 51.9607 99.6142 50.6247 98.9445 49.6495C98.3686 48.7744 97.2568 48.4136 96.2725 48.4136C94.4576 48.4136 92.8437 49.3421 92.4486 51.266C92.3682 51.6936 92.0534 52.1144 91.6182 52.1345L87.004 51.6402C86.6157 51.5533 86.1803 51.2393 86.2942 50.6448C87.3523 45.0604 92.4151 43.3769 96.9423 43.3769C99.2594 43.3769 102.286 43.9915 104.115 45.7417C106.432 47.8994 106.211 50.7783 106.211 53.9114V61.3128C106.211 63.5374 107.135 64.5125 108.005 65.715C108.307 66.1426 108.374 66.657 107.985 66.9776C107.014 67.7859 105.286 69.2889 104.336 70.1306L104.329 70.1172M37.106 58.5407C37.106 60.391 37.1529 61.9342 36.2152 63.5773C35.4586 64.9135 34.2599 65.735 32.9205 65.735C31.0923 65.735 30.0274 64.3457 30.0274 62.2948C30.0274 58.2467 33.6639 57.5119 37.106 57.5119V58.5407ZM41.9076 70.1172C41.5929 70.3978 41.1376 70.4179 40.7826 70.2308C39.2022 68.9215 38.9208 68.3136 38.0503 67.0644C35.4385 69.7232 33.5903 70.5181 30.2016 70.5181C26.1969 70.5181 23.0762 68.053 23.0762 63.1166C23.0762 59.2621 25.1723 56.6369 28.1523 55.3542C30.7374 54.2186 34.3469 54.0182 37.106 53.7042V53.0898C37.106 51.9607 37.1931 50.6247 36.53 49.6495C35.9474 48.7744 34.8359 48.4136 33.858 48.4136C32.0432 48.4136 30.4226 49.3421 30.0274 51.266C29.9471 51.6936 29.6323 52.1144 29.2037 52.1345L24.5829 51.6402C24.1945 51.5533 23.766 51.2393 23.8731 50.6448C24.9379 45.0604 29.994 43.3769 34.5211 43.3769C36.838 43.3769 39.8651 43.9915 41.6934 45.7417C44.0103 47.8994 43.7894 50.7783 43.7894 53.9114V61.3128C43.7894 63.5374 44.7136 64.5125 45.5842 65.715C45.8923 66.1426 45.9592 66.657 45.5708 66.9776C44.5997 67.7859 42.872 69.2889 41.9211 70.1306L41.9076 70.1172Z" fill="black"/>
</svg>
