<svg width="200" height="133" viewBox="0 0 200 133" fill="none" xmlns="http://www.w3.org/2000/svg">
<path d="M135.868 91.2649C134.524 94.3627 132.933 97.2142 131.089 99.8359C128.576 103.41 126.519 105.884 124.933 107.257C122.475 109.512 119.841 110.667 117.021 110.733C114.996 110.733 112.555 110.158 109.713 108.992C106.861 107.832 104.241 107.257 101.844 107.257C99.3315 107.257 96.6363 107.832 93.7537 108.992C90.8665 110.158 88.5406 110.766 86.7623 110.826C84.0579 110.941 81.3623 109.753 78.6716 107.257C76.9541 105.763 74.8061 103.202 72.2327 99.5731C69.4718 95.6981 67.2019 91.2047 65.4236 86.0819C63.5192 80.5487 62.5645 75.1905 62.5645 70.0032C62.5645 64.061 63.8517 58.936 66.4299 54.6413C68.4562 51.1916 71.1519 48.4704 74.5257 46.4728C77.8995 44.4751 81.545 43.457 85.4708 43.392C87.6189 43.392 90.4357 44.0547 93.9363 45.3573C97.4271 46.6643 99.6684 47.3271 100.651 47.3271C101.386 47.3271 103.876 46.5521 108.097 45.0071C112.088 43.5742 115.457 42.9808 118.217 43.2146C125.696 43.8166 131.314 46.7573 135.051 52.0553C128.362 56.0977 125.054 61.7596 125.119 69.0229C125.18 74.6804 127.237 79.3884 131.281 83.1266C133.114 84.8615 135.16 86.2024 137.437 87.1548C136.944 88.5832 136.422 89.9514 135.868 91.2649ZM118.716 23.9405C118.716 28.3748 117.092 32.5152 113.855 36.3475C109.949 40.9033 105.223 43.5358 100.099 43.1204C100.031 42.5629 99.9961 42.0018 99.996 41.4401C99.996 37.1832 101.854 32.6274 105.153 28.9024C106.8 27.0164 108.895 25.4482 111.435 24.1972C113.97 22.9649 116.368 22.2834 118.623 22.1667C118.689 22.7595 118.716 23.3524 118.716 23.9405Z" fill="black"/>
</svg>
