<svg width="200" height="133" viewBox="0 0 200 133" fill="none" xmlns="http://www.w3.org/2000/svg">
<path d="M88.9134 67.8261C88.9134 75.0939 83.2135 80.4495 76.2184 80.4495C69.2233 80.4495 63.5234 75.0939 63.5234 67.8261C63.5234 60.507 69.2233 55.2027 76.2184 55.2027C83.2135 55.2027 88.9134 60.507 88.9134 67.8261ZM83.3561 67.8261C83.3561 63.2844 80.0526 60.1769 76.2184 60.1769C72.3843 60.1769 69.0807 63.2844 69.0807 67.8261C69.0807 72.3222 72.3843 75.4753 76.2184 75.4753C80.0526 75.4753 83.3561 72.3166 83.3561 67.8261Z" fill="#EA4335"/>
<path d="M116.3 67.8261C116.3 75.0939 110.6 80.4495 103.605 80.4495C96.6101 80.4495 90.9102 75.0939 90.9102 67.8261C90.9102 60.5127 96.6101 55.2027 103.605 55.2027C110.6 55.2027 116.3 60.507 116.3 67.8261ZM110.743 67.8261C110.743 63.2844 107.439 60.1769 103.605 60.1769C99.771 60.1769 96.4674 63.2844 96.4674 67.8261C96.4674 72.3222 99.771 75.4753 103.605 75.4753C107.439 75.4753 110.743 72.3166 110.743 67.8261Z" fill="#FBBC05"/>
<path d="M142.547 55.9653V78.6283C142.547 87.9507 137.036 91.7582 130.52 91.7582C124.386 91.7582 120.695 87.6661 119.303 84.3196L124.141 82.3106C125.003 84.3651 127.114 86.7897 130.514 86.7897C134.685 86.7897 137.27 84.2229 137.27 79.3909V77.5754H137.076C135.832 79.1063 133.436 80.4438 130.412 80.4438C124.084 80.4438 118.287 74.946 118.287 67.8716C118.287 60.746 124.084 55.2027 130.412 55.2027C133.43 55.2027 135.826 56.5401 137.076 58.0256H137.27V55.971H142.547V55.9653ZM137.663 67.8716C137.663 63.4267 134.691 60.1769 130.908 60.1769C127.074 60.1769 123.861 63.4267 123.861 67.8716C123.861 72.271 127.074 75.4753 130.908 75.4753C134.691 75.4753 137.663 72.271 137.663 67.8716Z" fill="#4285F4"/>
<path d="M151.248 42.6817V79.6755H145.828V42.6817H151.248Z" fill="#34A853"/>
<path d="M172.371 71.9808L176.684 74.8492C175.292 76.9038 171.937 80.4438 166.14 80.4438C158.951 80.4438 153.582 74.9004 153.582 67.8204C153.582 60.3135 158.997 55.197 165.518 55.197C172.085 55.197 175.298 60.4103 176.347 63.2275L176.924 64.6617L160.007 71.6507C161.302 74.1833 163.316 75.4753 166.14 75.4753C168.97 75.4753 170.933 74.0866 172.371 71.9808ZM159.094 67.4391L170.402 62.7551C169.78 61.1786 167.909 60.0802 165.706 60.0802C162.882 60.0802 158.951 62.5673 159.094 67.4391Z" fill="#EA4335"/>
<path d="M43.0059 64.5422V59.1866H61.0984C61.2753 60.12 61.3665 61.2241 61.3665 62.4193C61.3665 66.4374 60.2654 71.4059 56.7165 74.946C53.2646 78.5315 48.8541 80.4438 43.0116 80.4438C32.1823 80.4438 23.0762 71.645 23.0762 60.8428C23.0762 50.0406 32.1823 41.2418 43.0116 41.2418C49.0025 41.2418 53.2703 43.5866 56.4768 46.6429L52.6883 50.4219C50.3889 48.2706 47.2737 46.5974 43.0059 46.5974C35.0979 46.5974 28.913 52.9546 28.913 60.8428C28.913 68.731 35.0979 75.0882 43.0059 75.0882C48.1352 75.0882 51.0565 73.0337 52.9279 71.1669C54.4456 69.653 55.4441 67.4903 55.8378 64.5365L43.0059 64.5422Z" fill="#4285F4"/>
</svg>
