<svg width="200" height="133" viewBox="0 0 200 133" fill="none" xmlns="http://www.w3.org/2000/svg">
<path d="M72.3159 59.776V81.4886H65.3862V54.1969L79.6916 54.2104C85.7678 54.2104 87.8377 58.4847 87.8377 62.3672V81.4886H80.9211V62.4029C80.9211 60.7768 80.077 59.776 78.0415 59.776H72.3159ZM119.433 59.4498C117.064 59.4498 115.231 60.6644 114.466 62.3131C114.012 63.303 113.856 64.0615 113.803 65.2734H124.463C124.326 62.3131 122.98 59.4498 119.433 59.4498ZM113.803 69.9776C113.803 73.5128 116.006 76.1148 119.94 76.1148C123 76.1148 124.521 75.2689 126.291 73.5128L130.57 77.5889C127.83 80.2871 124.955 81.9263 119.888 81.9263C113.255 81.9263 106.908 78.3185 106.908 67.8037C106.908 58.8204 112.45 53.734 119.733 53.734C127.115 53.734 131.379 59.6885 131.379 67.4879V69.9776H113.803ZM101.059 81.4543C95.4138 81.4543 93.0187 77.5348 93.0187 73.6635V46.7607H99.9371V54.1965H105.152V59.776H99.9371V73.2308C99.9371 74.8163 100.688 75.6966 102.338 75.6966H105.152V81.4543H101.059ZM59.2214 50.4253H52.2446V43.8143H59.2214V50.4253ZM59.239 81.7756C54.0146 81.2748 52.237 78.1137 52.237 74.4662L52.2451 54.1969H59.239V81.7756ZM142.391 81.1922C137.177 80.6909 135.408 77.5348 135.408 73.8918V42.874H142.391V81.1922ZM166.801 47.3567C160.472 16.5822 100.586 14.6339 61.9851 38.0742V40.6623C100.546 20.8943 155.236 21.0111 160.219 49.3555C161.886 58.7279 156.591 68.4995 147.136 74.116V81.4643C158.517 77.311 170.189 63.8431 166.801 47.3567ZM96.6332 101.199C69.9923 103.656 42.2314 99.7983 38.3468 79.0328C36.4452 68.7964 41.1205 57.945 47.3224 51.2045V47.6004C36.1571 57.3661 30.0981 69.7295 33.5865 84.3384C38.0387 103.071 61.8648 113.688 98.2318 110.162C112.62 108.761 131.453 104.146 144.545 96.9779V86.7947C132.665 93.8515 113.006 99.6869 96.6332 101.199Z" fill="#0071C5"/>
<path d="M150.464 44.9333C150.464 44.5958 150.266 44.4884 149.814 44.4884H149.378V45.4441C149.441 45.4441 149.758 45.4558 149.814 45.4558C150.266 45.4558 150.464 45.3051 150.464 44.9893V44.9333ZM151.144 47.3035H150.627C150.604 47.303 150.582 47.2963 150.563 47.2842C150.544 47.2721 150.529 47.255 150.519 47.2349L149.814 46.0424C149.801 46.018 149.74 45.9891 149.716 45.9891H149.4V47.1717C149.4 47.2349 149.356 47.3035 149.273 47.3035H148.805C148.746 47.3035 148.688 47.2349 148.688 47.1717V44.1798C148.688 44.0065 148.756 43.9344 148.902 43.9118C149.067 43.8901 149.516 43.8757 149.758 43.8757C150.617 43.8757 151.137 44.1284 151.137 44.9333V44.9893C151.137 45.4874 150.888 45.7504 150.503 45.879L151.234 47.1126C151.238 47.1379 151.256 47.1717 151.256 47.201C151.256 47.2493 151.227 47.3035 151.144 47.3035ZM149.916 43.3356C148.644 43.3356 147.615 44.3833 147.615 45.6458C147.615 46.2544 147.858 46.8379 148.29 47.2682C148.721 47.6985 149.306 47.9403 149.916 47.9406C151.182 47.9406 152.221 46.9091 152.221 45.6453C152.221 44.3833 151.182 43.3356 149.916 43.3356ZM149.916 48.4161C149.551 48.4168 149.19 48.3457 148.852 48.2067C148.515 48.0678 148.208 47.8638 147.95 47.6064C147.692 47.3491 147.487 47.0434 147.347 46.7069C147.208 46.3705 147.136 46.0099 147.137 45.6458C147.136 45.2816 147.208 44.9209 147.348 44.5844C147.487 44.2478 147.692 43.9421 147.95 43.6846C148.208 43.4271 148.515 43.2229 148.852 43.0837C149.19 42.9446 149.551 42.8732 149.916 42.8736C151.446 42.8736 152.703 44.1216 152.703 45.6453C152.703 47.1717 151.446 48.4161 149.916 48.4161Z" fill="#0071C5"/>
</svg>
