<svg width="200" height="133" viewBox="0 0 200 133" fill="none" xmlns="http://www.w3.org/2000/svg">
<path d="M28.1167 71.4308C28.1167 73.2083 28.5079 74.5729 29.019 75.3985C29.6893 76.4799 30.689 76.938 31.7081 76.938C33.0226 76.938 34.2252 76.6126 36.5426 73.4155C38.3991 70.8529 40.5867 67.256 42.0586 65.001L44.5513 61.1806C46.2829 58.5274 48.2871 55.578 50.5851 53.5788C52.4611 51.9471 54.4848 51.0405 56.5215 51.0405C59.9408 51.0405 63.1979 53.0171 65.6906 56.7241C68.4186 60.784 69.7428 65.8978 69.7428 71.1751C69.7428 74.3123 69.1229 76.6175 68.0681 78.4386C67.0489 80.1998 65.0625 81.9595 61.7211 81.9595V76.938C64.5822 76.938 65.2962 74.3155 65.2962 71.3143C65.2962 67.0374 64.2966 62.2911 62.0943 58.8998C60.5315 56.4942 58.5062 55.0244 56.2781 55.0244C53.8681 55.0244 51.9288 56.8374 49.7493 60.0702C48.5906 61.7877 47.4011 63.8808 46.0655 66.2426L44.5952 68.8408C41.6416 74.0646 40.8934 75.2544 39.4166 77.218C36.8282 80.6563 34.6179 81.9595 31.7081 81.9595C28.2563 81.9595 26.0736 80.4686 24.7217 78.2217C23.6182 76.3908 23.0762 73.9885 23.0762 71.2512L28.1167 71.4308Z" fill="#0081FB"/>
<path d="M27.0508 57.0786C29.3617 53.5254 32.6967 51.0405 36.5217 51.0405C38.7369 51.0405 40.9391 51.6945 43.2387 53.5675C45.7541 55.6152 48.4351 58.9872 51.7798 64.5445L52.979 66.5389C55.8742 71.3499 57.5214 73.825 58.4854 74.9922C59.7252 76.4912 60.5935 76.938 61.7213 76.938C64.5824 76.938 65.2965 74.3155 65.2965 71.3143L69.7431 71.1751C69.7431 74.3123 69.1232 76.6175 68.0683 78.4386C67.0492 80.1998 65.0628 81.9595 61.7213 81.9595C59.6441 81.9595 57.8038 81.5094 55.7687 79.5944C54.2043 78.1245 52.3753 75.5134 50.9683 73.1662L46.783 66.1924C44.683 62.6926 42.7567 60.0831 41.6418 58.9014C40.4425 57.6306 38.9008 56.096 36.4406 56.096C34.4494 56.096 32.7583 57.4898 31.3432 59.6217L27.0508 57.0786Z" fill="url(#paint0_linear_3535_31426)"/>
<path d="M36.4403 56.096C34.4491 56.096 32.7581 57.4898 31.343 59.6217C29.342 62.6343 28.1167 67.1216 28.1167 71.4308C28.1167 73.2083 28.5078 74.5729 29.019 75.3985L24.7217 78.2217C23.6182 76.3908 23.0762 73.9885 23.0762 71.2512C23.0762 66.2734 24.4459 61.0851 27.0505 57.0786C29.3615 53.5254 32.6964 51.0405 36.5215 51.0405L36.4403 56.096Z" fill="url(#paint1_linear_3535_31426)"/>
<path d="M79.543 52.0183H85.3739L95.2879 69.9092L105.203 52.0183H110.908V81.4156H106.151V58.8852L97.456 74.4871H92.9931L84.2995 58.8852V81.4156H79.543V52.0183ZM125.812 62.9791C122.401 62.9791 120.346 65.5401 119.855 68.7113H131.432C131.193 65.4445 129.304 62.9791 125.812 62.9791ZM115.139 70.5178C115.139 63.8452 119.462 58.9888 125.895 58.9888C132.222 58.9888 136 63.7837 136 70.874V72.1771H119.855C120.427 75.6268 122.722 77.9513 126.422 77.9513C129.374 77.9513 131.219 77.0529 132.969 75.4098L135.496 78.4969C133.115 80.6806 130.087 81.94 126.253 81.94C119.29 81.94 115.139 76.8748 115.139 70.5178ZM141.768 63.4H137.389V59.5149H141.768V53.0899H146.357V59.5149H153.009V63.4H146.357V73.2471C146.357 76.6094 147.435 77.804 150.083 77.804C151.292 77.804 151.985 77.7004 153.009 77.5305V81.3735C151.734 81.7328 150.517 81.898 149.199 81.898C144.244 81.898 141.768 79.1978 141.768 73.7927V63.4ZM172.334 67.1783C171.412 64.8569 169.356 63.1475 166.335 63.1475C162.407 63.1475 159.894 65.9269 159.894 70.4547C159.894 74.8692 162.208 77.783 166.146 77.783C169.243 77.783 171.453 75.9861 172.334 73.7506V67.1783ZM176.924 81.4156H172.419V78.3496C171.159 80.1545 168.868 81.94 165.156 81.94C159.188 81.94 155.199 76.9558 155.199 70.4547C155.199 63.8921 159.283 58.9888 165.41 58.9888C168.438 58.9888 170.814 60.1964 172.419 62.3284V59.5149H176.924V81.4156Z" fill="#192830"/>
<defs>
<linearGradient id="paint0_linear_3535_31426" x1="32.9758" y1="69.9804" x2="65.1078" y2="71.6073" gradientUnits="userSpaceOnUse">
<stop stop-color="#0064E1"/>
<stop offset="0.4" stop-color="#0064E1"/>
<stop offset="0.83" stop-color="#0073EE"/>
<stop offset="1" stop-color="#0082FB"/>
</linearGradient>
<linearGradient id="paint1_linear_3535_31426" x1="30.379" y1="73.5417" x2="30.379" y2="61.7246" gradientUnits="userSpaceOnUse">
<stop stop-color="#0082FB"/>
<stop offset="1" stop-color="#0064E0"/>
</linearGradient>
</defs>
</svg>
