<svg width="200" height="133" viewBox="0 0 200 133" fill="none" xmlns="http://www.w3.org/2000/svg">
<path d="M87.0588 56.6814V76.3186H83.641V60.9088H83.5954L77.489 76.3186H75.2104L68.9673 60.9088H68.9217V76.3186H65.7773V56.6814H70.699L76.3497 71.2275H76.4409L82.4106 56.6814H87.0588ZM89.8842 58.1814C89.8842 57.636 90.0664 57.1814 90.4766 56.8177C90.8867 56.4541 91.3424 56.2723 91.8893 56.2723C92.4817 56.2723 92.983 56.4541 93.3475 56.8177C93.7121 57.1814 93.9399 57.636 93.9399 58.1814C93.9399 58.7269 93.7577 59.1815 93.3475 59.5451C92.9374 59.9088 92.4817 60.0906 91.8893 60.0906C91.2969 60.0906 90.8411 59.9088 90.4766 59.5451C90.112 59.136 89.8842 58.6815 89.8842 58.1814ZM93.5754 62.2271V76.3186H90.2487V62.2271H93.5754ZM103.646 73.9094C104.148 73.9094 104.695 73.8185 105.287 73.5458C105.879 73.3185 106.426 73.0003 106.928 72.6366V75.7277C106.381 76.0459 105.788 76.2732 105.105 76.4095C104.421 76.5459 103.692 76.6368 102.872 76.6368C100.776 76.6368 99.0894 76.0004 97.8134 74.6822C96.4919 73.364 95.8539 71.6821 95.8539 69.682C95.8539 67.4091 96.5375 65.5454 97.859 64.0908C99.1806 62.6362 101.049 61.9089 103.51 61.9089C104.148 61.9089 104.786 61.9998 105.378 62.1362C106.016 62.2725 106.517 62.4998 106.882 62.6816V65.8636C106.381 65.5 105.834 65.1818 105.333 64.9999C104.786 64.8181 104.239 64.6817 103.692 64.6817C102.37 64.6817 101.322 65.0908 100.502 65.9545C99.6818 66.8182 99.3173 67.9546 99.3173 69.4092C99.3173 70.8184 99.7274 71.9548 100.502 72.7276C101.277 73.5003 102.325 73.9094 103.646 73.9094ZM116.361 61.9998C116.634 61.9998 116.862 61.9998 117.09 62.0453C117.318 62.0907 117.5 62.1362 117.637 62.1816V65.5454C117.454 65.409 117.226 65.2727 116.862 65.1818C116.497 65.0908 116.133 64.9999 115.632 64.9999C114.811 64.9999 114.128 65.3636 113.581 66.0454C113.034 66.7273 112.715 67.7728 112.715 69.2274V76.3186H109.388V62.2271H112.715V64.4545H112.761C113.08 63.6817 113.535 63.0908 114.128 62.6362C114.766 62.2271 115.495 61.9998 116.361 61.9998ZM117.819 69.5001C117.819 67.1819 118.502 65.3181 119.778 63.9544C121.1 62.5907 122.923 61.9089 125.247 61.9089C127.434 61.9089 129.166 62.5453 130.396 63.8635C131.627 65.1818 132.265 66.9546 132.265 69.1819C132.265 71.4548 131.581 73.273 130.305 74.6367C128.984 76.0004 127.206 76.6823 124.928 76.6823C122.741 76.6823 121.009 76.0459 119.733 74.7731C118.457 73.4549 117.819 71.6821 117.819 69.5001ZM121.282 69.3638C121.282 70.8184 121.601 71.9548 122.285 72.7276C122.968 73.5003 123.925 73.9094 125.156 73.9094C126.341 73.9094 127.298 73.5458 127.936 72.7276C128.574 71.9548 128.893 70.8184 128.893 69.2729C128.893 67.7728 128.574 66.6364 127.936 65.8182C127.298 65.0454 126.341 64.6363 125.201 64.6363C123.971 64.6363 123.06 65.0454 122.376 65.8636C121.601 66.7273 121.282 67.8637 121.282 69.3638ZM137.232 65.9545C137.232 66.4091 137.369 66.8182 137.688 67.0909C138.007 67.3637 138.645 67.6819 139.693 68.091C141.014 68.6365 141.971 69.2274 142.473 69.8638C143.019 70.5456 143.293 71.3184 143.293 72.273C143.293 73.5912 142.792 74.6367 141.743 75.455C140.741 76.2732 139.328 76.6368 137.597 76.6368C137.004 76.6368 136.366 76.5459 135.637 76.4095C134.908 76.2732 134.315 76.0913 133.814 75.8641V72.5912C134.407 73.0003 135.09 73.364 135.774 73.5912C136.457 73.8185 137.095 73.9549 137.688 73.9549C138.417 73.9549 139.009 73.864 139.328 73.6367C139.693 73.4094 139.875 73.0912 139.875 72.5912C139.875 72.1366 139.693 71.773 139.328 71.4093C138.964 71.0911 138.235 70.7275 137.232 70.3184C136.002 69.8183 135.136 69.2274 134.634 68.591C134.133 67.9546 133.86 67.1364 133.86 66.1363C133.86 64.8636 134.361 63.8181 135.364 62.9998C136.366 62.1816 137.688 61.7725 139.283 61.7725C139.784 61.7725 140.331 61.818 140.923 61.9543C141.516 62.0907 142.062 62.2271 142.473 62.3635V65.5909C142.017 65.3181 141.516 65.0454 140.923 64.8181C140.331 64.5908 139.738 64.4999 139.191 64.4999C138.554 64.4999 138.052 64.6363 137.733 64.8636C137.414 65.1818 137.232 65.5 137.232 65.9545ZM144.706 69.5001C144.706 67.1819 145.389 65.3181 146.665 63.9544C147.987 62.5907 149.809 61.9089 152.134 61.9089C154.321 61.9089 156.053 62.5453 157.283 63.8635C158.513 65.1818 159.151 66.9546 159.151 69.1819C159.151 71.4548 158.468 73.273 157.192 74.6367C155.87 76.0004 154.093 76.6823 151.815 76.6823C149.627 76.6823 147.895 76.0459 146.619 74.7731C145.389 73.4549 144.706 71.6821 144.706 69.5001ZM148.169 69.3638C148.169 70.8184 148.488 71.9548 149.171 72.7276C149.855 73.5003 150.812 73.9094 152.042 73.9094C153.227 73.9094 154.184 73.5458 154.822 72.7276C155.46 71.9548 155.779 70.8184 155.779 69.2729C155.779 67.7728 155.46 66.6364 154.822 65.8182C154.184 65.0454 153.227 64.6363 152.088 64.6363C150.858 64.6363 149.946 65.0454 149.263 65.8636C148.533 66.7273 148.169 67.8637 148.169 69.3638ZM170.225 64.9545H165.258V76.3186H161.886V64.9545H159.516V62.2271H161.886V60.2724C161.886 58.8178 162.387 57.5905 163.344 56.6359C164.301 55.6813 165.531 55.2268 167.035 55.2268C167.445 55.2268 167.81 55.2722 168.129 55.2722C168.448 55.2722 168.721 55.3631 168.949 55.454V58.3178C168.858 58.2724 168.63 58.1814 168.357 58.0905C168.083 57.9996 167.764 57.9542 167.4 57.9542C166.716 57.9542 166.169 58.1814 165.805 58.5906C165.44 58.9997 165.258 59.6815 165.258 60.4997V62.1816H170.225V58.9997L173.552 57.9996V62.1816H176.924V64.909H173.552V71.5002C173.552 72.3639 173.734 72.9548 174.007 73.3185C174.326 73.6821 174.828 73.864 175.511 73.864C175.694 73.864 175.921 73.8185 176.195 73.7276C176.468 73.6367 176.696 73.5458 176.878 73.4094V76.1368C176.65 76.2732 176.331 76.3641 175.83 76.455C175.329 76.5459 174.873 76.5914 174.372 76.5914C172.959 76.5914 171.911 76.2277 171.228 75.5004C170.544 74.7731 170.179 73.6367 170.179 72.1366L170.225 64.9545Z" fill="#737373"/>
<path d="M23.0762 50.1356H38.6613V65.6818H23.0762V50.1356Z" fill="#F25022"/>
<path d="M40.3027 50.1356H55.8879V65.6818H40.3027V50.1356Z" fill="#7FBA00"/>
<path d="M23.0762 67.3182H38.6613V82.8644H23.0762V67.3182Z" fill="#00A4EF"/>
<path d="M40.3027 67.3182H55.8879V82.8644H40.3027V67.3182Z" fill="#FFB900"/>
</svg>
