<svg width="200" height="133" viewBox="0 0 200 133" fill="none" xmlns="http://www.w3.org/2000/svg">
<path d="M44.2305 84.5637C41.9162 84.969 39.5611 85.0906 37.125 85.4143L29.6944 63.7055V86.346C27.3801 86.5889 25.2688 86.9129 23.0762 87.2369V45.7631H29.248L37.6934 69.295V45.7631H44.2305V84.5637ZM57.0206 60.9513C59.5382 60.9513 63.3954 60.8297 65.7097 60.8297V67.3099C62.8268 67.3099 59.4569 67.3099 57.0206 67.4314V77.071C60.8374 76.8281 64.6541 76.5038 68.5113 76.3822V82.6192L50.5239 84.037V45.7631H68.5113V52.2434H57.0206V60.9513ZM92.6702 52.2435H85.9301V82.0528C83.7375 82.0528 81.5449 82.0528 79.4339 82.1336V52.2435H72.6938V45.7631H92.6705L92.6702 52.2435ZM103.227 60.5059H112.119V66.986H103.227V81.6883H96.8519V45.7631H115.002V52.2434H103.227V60.5059ZM125.559 76.0179C129.254 76.0987 132.989 76.3827 136.603 76.5849V82.9842C130.797 82.6195 124.991 82.2554 119.062 82.1336V45.7631H125.559V76.0179ZM142.084 83.4298C144.155 83.5515 146.348 83.673 148.459 83.9156V45.7631H142.084V83.4298ZM176.922 45.7631L168.68 65.4875L176.922 87.2369C174.486 86.9129 172.05 86.4674 169.613 86.0623L164.944 74.074L160.194 85.0906C157.839 84.6852 155.565 84.5637 153.21 84.2396L161.575 65.2443L154.022 45.7631H161.006L165.269 56.6581L169.817 45.7631H176.922Z" fill="#D81F26"/>
</svg>
