<svg width="200" height="133" viewBox="0 0 200 133" fill="none" xmlns="http://www.w3.org/2000/svg">
<path fill-rule="evenodd" clip-rule="evenodd" d="M90.3389 89.3955L90.3411 110.833H96.4096V89.3961L90.3389 89.3955ZM42.5918 89.3669V110.833H48.7153V94.5331L53.4593 94.5348C55.0306 94.5348 56.1496 94.9248 56.9068 95.7306C57.8673 96.7511 58.2589 98.3964 58.2589 101.407V110.833H64.1918V98.9731C64.1918 90.5083 58.7825 89.3663 53.4903 89.3663L42.5918 89.3669ZM100.111 89.3961V110.833H109.956C115.202 110.833 116.913 109.963 118.765 108.012C120.074 106.642 120.919 103.636 120.919 100.35C120.919 97.3375 120.203 94.6488 118.955 92.9748C116.706 89.9814 113.466 89.3961 108.63 89.3961H100.111ZM106.132 94.0635H108.742C112.528 94.0635 114.977 95.7598 114.977 100.16C114.977 104.562 112.528 106.258 108.742 106.258H106.132V94.0635ZM81.5876 89.3961L76.5221 106.386L71.668 89.3973L65.1161 89.3961L72.048 110.833H80.7964L87.7829 89.3961H81.5882H81.5876ZM123.743 110.833H129.814V89.3978L123.742 89.3961L123.743 110.833ZM140.758 89.4036L132.283 110.826H138.268L139.609 107.039H149.639L150.908 110.826H157.407L148.866 89.4018L140.758 89.4036ZM144.699 93.3121L148.375 103.348H140.906L144.699 93.3121Z" fill="#1A1919"/>
<path fill-rule="evenodd" clip-rule="evenodd" d="M82.3146 39.1799V34.0298C82.8218 33.9939 83.3296 33.9679 83.8377 33.9519C97.9587 33.5092 107.223 46.055 107.223 46.055C107.223 46.055 97.2175 59.9173 86.489 59.9173C84.9435 59.9173 83.561 59.6693 82.3146 59.2519V43.6348C87.8118 44.2968 88.917 46.7193 92.2227 52.2147L99.5731 46.0326C99.5731 46.0326 94.208 39.0127 85.1628 39.0127C84.1782 39.0127 83.2378 39.0814 82.3146 39.1799ZM82.3146 22.1672V29.8601C82.821 29.82 83.3285 29.7879 83.8377 29.7696C103.475 29.1099 116.269 45.8345 116.269 45.8345C116.269 45.8345 101.573 63.6586 86.2645 63.6586C84.862 63.6586 83.549 63.5298 82.3146 63.3116V68.0666C83.3698 68.2006 84.4629 68.2796 85.6043 68.2796C99.851 68.2796 110.154 61.0226 120.131 52.4329C121.783 53.7541 128.556 56.968 129.948 58.3762C120.462 66.2976 98.3554 72.6818 85.823 72.6818C84.6513 72.6775 83.4805 72.6167 82.3146 72.4997V79.1829H136.463V22.1667H82.3152L82.3146 22.1672ZM82.3146 59.2519V63.3116C69.1375 60.9676 65.4803 47.3057 65.4803 47.3057C65.4803 47.3057 71.8071 40.3132 82.3146 39.1799V43.6348C82.3066 43.6348 82.3008 43.6325 82.2939 43.6325C76.7801 42.9716 72.4719 48.1109 72.4719 48.1109C72.4719 48.1109 74.8855 56.7618 82.3146 59.2519ZM58.9113 46.713C58.9113 46.713 66.7204 35.2181 82.3146 34.0298V29.8601C65.0428 31.2425 50.0859 45.8339 50.0859 45.8339C50.0859 45.8339 58.5559 70.2634 82.3146 72.4997L82.3152 68.0672C64.8804 65.8784 58.9113 46.713 58.9113 46.713Z" fill="#76B900"/>
</svg>
