<svg width="200" height="133" viewBox="0 0 200 133" fill="none" xmlns="http://www.w3.org/2000/svg">
<path d="M46.6103 63.2431H29.6988L29.0723 63.7189V78.9957H33.7538V73.267L34.2007 72.8604H46.611C49.7444 72.8604 51.2135 72.0043 51.2135 69.8077V66.3001C51.2129 64.0998 49.7444 63.2431 46.6103 63.2431ZM46.6103 68.891C46.6103 69.9259 45.9361 70.1408 44.4671 70.1408H34.2519L33.7532 69.6485V66.376L34.2001 65.9608H44.4671C45.9361 65.9608 46.6103 66.1733 46.6103 67.2131V68.891Z" fill="#005288"/>
<path d="M59.7508 66.1329L63.7793 72.1261L63.5561 72.7067H54.6472L52.373 75.5475H65.6343L66.5533 76.1157L68.6121 78.9994H73.9697L62.2264 63.0478" fill="#005288"/>
<path d="M113.024 75.8965V71.6565L113.506 71.2339H122.469V68.534H108.264V78.9988H129.217V76.3117H113.527" fill="#005288"/>
<path d="M129.439 63.2431H108.264V66.2119H129.439V63.2431Z" fill="#005288"/>
<path d="M84.6463 66.0545H101.706C101.443 63.8518 100.097 63.2407 96.6821 63.2407H84.4648C80.6118 63.2407 79.3828 64.0043 79.3828 66.9651V75.2719C79.3828 78.2358 80.6118 78.9994 84.4648 78.9994H96.6821C100.147 78.9994 101.473 78.3386 101.564 76.0539H84.6463L84.1446 75.5744V66.3754" fill="#005288"/>
<path d="M17.6893 69.3815H5.27901L4.91356 68.9731V66.2774L5.2772 65.992H22.0072L22.2357 65.4244C21.6659 63.9357 20.1902 63.2413 17.4499 63.2413H5.82839C1.97788 63.2413 0.74704 64.0049 0.74704 66.9657V68.7073C0.74704 71.6718 1.97788 72.4342 5.82839 72.4342H18.2109L18.5999 72.7808V75.5989L18.2827 76.0386H4.11873V76.0251H0.408726C0.408726 76.0251 -0.0158259 76.2413 0.000456659 76.3423C0.317061 78.4133 1.7065 79 5.03296 79H17.6893C21.5392 79 22.8068 78.2364 22.8068 75.2725V73.1029C22.8068 70.1439 21.5392 69.3815 17.6893 69.3815Z" fill="#005288"/>
<path d="M142.758 63.1782H135.792L135.414 63.9088L143.15 69.635C144.615 68.7734 146.21 67.9002 147.944 67.0386" fill="#005288"/>
<path d="M149 73.9651L155.799 79H162.85L163.142 78.3331L152.989 70.7869C151.641 71.7918 150.309 72.853 149 73.9651Z" fill="#005288"/>
<path d="M141.722 78.9884H135.419L134.887 78.1415C139.172 73.94 158.338 55.9296 200 54C200 54 165.031 55.1978 141.722 78.9884Z" fill="#A7A9AC"/>
</svg>
