<svg width="200" height="133" viewBox="0 0 200 133" fill="none" xmlns="http://www.w3.org/2000/svg">
<path d="M124.352 105.432V110.823H126.085V107.234H132.392V110.823H134.123V105.442L124.352 105.432ZM125.892 103.689H132.555C133.481 103.505 134.169 102.691 134.363 101.902H124.084C124.276 102.691 124.974 103.505 125.892 103.689ZM119.103 110.826C119.977 110.457 120.447 109.818 120.627 109.07H112.855L112.859 101.907L111.117 101.912V110.826H119.103ZM98.1606 103.665H104.315C105.242 103.396 106.021 102.691 106.211 101.909H96.4355V107.177H104.437V109.026L98.1606 109.031C97.1771 109.304 96.343 109.963 95.927 110.833L96.4355 110.824H106.156V105.426H98.1606V103.665ZM82.9685 103.682H89.6297C90.5565 103.497 91.2453 102.683 91.4384 101.895H81.1598C81.3517 102.683 82.0506 103.497 82.9685 103.682ZM82.9685 107.205H89.6297C90.5565 107.023 91.2453 106.208 91.4384 105.418H81.1598C81.3517 106.208 82.0506 107.023 82.9685 107.205ZM82.9685 110.825H89.6297C90.5565 110.641 91.2453 109.827 91.4384 109.039H81.1598C81.3517 109.827 82.0506 110.641 82.9685 110.825ZM65.6387 101.916C65.8389 102.695 66.5151 103.492 67.4429 103.691H70.2469L70.3899 103.747V110.805H72.1409V103.747L72.3 103.691H75.1064C76.0445 103.45 76.7062 102.695 76.903 101.916V101.899H65.6387V101.916Z" fill="#E82127"/>
<path d="M100.002 84.2814L108.751 35.2003C117.09 35.2003 119.72 36.1125 120.1 39.8356C120.1 39.8356 125.694 37.755 128.516 33.5293C117.506 28.4401 106.443 28.2106 106.443 28.2106L99.9873 36.0534L100.002 36.0525L93.5465 28.2093C93.5465 28.2093 82.4834 28.4391 71.4746 33.5283C74.2936 37.754 79.89 39.8347 79.89 39.8347C80.2721 36.1113 82.8992 35.1991 91.1825 35.1932L100.002 84.2814Z" fill="#E82127"/>
<path d="M99.9991 25.9452C108.899 25.8773 119.087 27.3186 129.516 31.8526C130.909 29.35 131.268 28.244 131.268 28.244C119.868 23.745 109.191 22.2053 99.9979 22.1667C90.8048 22.2053 80.1292 23.7452 68.7305 28.244C68.7305 28.244 69.239 29.6064 70.4814 31.8526C80.9082 27.3186 91.0973 25.8773 99.9979 25.9452H99.9991Z" fill="#E82127"/>
</svg>
